<svg width="15" height="15" viewBox="0 0 15 15" fill="none" xmlns="http://www.w3.org/2000/svg">
<g id="facebook.icon 1">
<g id="Group">
<path id="Vector" fill-rule="evenodd" clip-rule="evenodd" d="M5.55 7.56V14.82C5.55 14.91 5.64 15 5.73 15H8.43C8.52 15 8.61 14.91 8.61 14.82V7.44H10.56C10.65 7.44 10.74 7.35 10.74 7.26L10.92 5.04C10.92 4.92 10.83 4.83 10.74 4.83H8.61V3.24C8.61 2.88 8.91 2.58 9.27 2.58H10.77C10.86 2.58 10.95 2.49 10.95 2.4V0.18C10.98 0.09 10.89 0 10.8 0H8.25C6.75 0 5.55 1.2 5.55 2.7V4.83H4.2C4.11 4.83 4.02 4.92 4.02 5.01V7.23C4.02 7.32 4.11 7.41 4.2 7.41H5.55V7.56Z" fill="#E85F5C"/>
</g>
</g>
</svg>
