<svg width="15" height="15" viewBox="0 0 15 15" fill="none" xmlns="http://www.w3.org/2000/svg">
<g id="youtube.icon 1">
<g id="Group">
<path id="Vector" d="M15 5.63987C15 3.83987 13.53 2.36987 11.73 2.36987H3.27C1.47 2.36987 0 3.83987 0 5.63987V9.32987C0 11.1299 1.47 12.5999 3.27 12.5999H11.7C13.5 12.5999 14.97 11.1299 14.97 9.32987V5.63987H15ZM10.35 7.58987L6.57 9.44987C6.42 9.53987 5.91 9.41987 5.91 9.26987V5.42987C5.91 5.24987 6.42 5.15987 6.57 5.24987L10.2 7.19987C10.35 7.28987 10.5 7.49987 10.35 7.58987Z" fill="#E85F5C"/>
</g>
<rect x="0.5" y="0.499756" width="14" height="14" stroke="black"/>
</g>
</svg>
