<svg width="18" height="15" viewBox="0 0 18 15" fill="none" xmlns="http://www.w3.org/2000/svg">
<g id="cart.icon 1" clip-path="url(#clip0_12_30)">
<path id="Vector" d="M13.8508 15C12.7218 15 11.8145 14.129 11.8145 13.0452C11.8145 11.9613 12.7218 11.0903 13.8508 11.0903C14.9798 11.0903 15.9073 11.9613 15.9073 13.0452C15.9073 14.129 14.9798 15 13.8508 15ZM13.8508 12.1161C13.3266 12.1161 12.9032 12.5419 12.9032 13.0452C12.9032 13.5484 13.3468 13.9548 13.871 13.9548C14.3952 13.9548 14.8185 13.529 14.8185 13.0258C14.8185 12.5419 14.375 12.1161 13.8508 12.1161Z" fill="#222222"/>
<path id="Vector_2" d="M4.71774 9.96774L2.5 1.04516H0V0H3.36694L5.60484 8.92258H14.7984L16.129 3.85161H9.67742V2.80645H17.5L15.6653 9.96774H4.71774Z" fill="#222222"/>
<path id="Vector_3" d="M6.02823 15C4.91936 15 3.99194 14.0903 3.99194 13.0258C3.99194 11.9613 4.93952 11.071 6.04839 11.071C7.17743 11.071 8.08468 11.9613 8.08468 13.0451C8.06452 14.129 7.1371 15 6.02823 15ZM6.02823 12.1161C5.50404 12.1161 5.08065 12.5419 5.08065 13.0451C5.08065 13.529 5.5242 13.9548 6.02823 13.9548C6.55243 13.9548 6.97581 13.529 6.97581 13.0258C6.97581 12.5419 6.53227 12.1161 6.02823 12.1161Z" fill="#222222"/>
</g>
<defs>
<clipPath id="clip0_12_30">
<rect width="17.5" height="15" fill="white"/>
</clipPath>
</defs>
</svg>
