<svg width="17" height="10" viewBox="0 0 17 10" fill="none" xmlns="http://www.w3.org/2000/svg">
<g id="hamburger.menu.icon 1" clip-path="url(#clip0_12_25)">
<g id="Group">
<path id="Vector" d="M1.49026 7.6875H15.7065C16.1846 7.6875 16.5671 8.0625 16.5671 8.53125C16.5671 9 16.1846 9.375 15.7065 9.375H1.49026C1.01214 9.375 0.629639 9 0.629639 8.53125C0.629639 8.0625 1.01214 7.6875 1.49026 7.6875Z" fill="black"/>
<path id="Vector_2" d="M1.49026 3.84375H15.7065C16.1846 3.84375 16.5671 4.21875 16.5671 4.6875C16.5671 5.15625 16.1846 5.53125 15.7065 5.53125H1.49026C1.01214 5.53125 0.629639 5.15625 0.629639 4.6875C0.629639 4.21875 1.01214 3.84375 1.49026 3.84375Z" fill="black"/>
<path id="Vector_3" d="M1.49026 0H15.7065C16.1846 0 16.5671 0.375 16.5671 0.84375C16.5671 1.3125 16.1846 1.6875 15.7065 1.6875H1.49026C1.01214 1.6875 0.629639 1.3125 0.629639 0.84375C0.629639 0.375 1.01214 0 1.49026 0Z" fill="black"/>
</g>
</g>
<defs>
<clipPath id="clip0_12_25">
<rect width="17" height="10" fill="white"/>
</clipPath>
</defs>
</svg>
