<svg width="80" height="80" viewBox="0 0 80 80" fill="none" xmlns="http://www.w3.org/2000/svg">
<g id="better.together.married.struggling.icon 2">
<path id="Vector" d="M40 0C45.3333 8.72727 48 14.7071 48 17.9394C48 21.9798 45.495 24.8889 42.0202 25.697V31.8384C47.5152 33.1313 53.3333 33.9394 62.0606 33.9394V75.9596H68.0404V80H11.9596V75.9596H17.9394V22.6263C25.3737 26.4242 32 29.1717 37.9798 30.7879V25.697C34.5051 24.8889 32 21.9798 32 17.9394C32 14.7071 34.6667 8.72727 40 0ZM21.9798 75.9596H58.0202V37.899C47.0303 37.5758 34.9091 35.0707 21.9798 29.0909V75.9596ZM48.404 49.8586C50.9899 52.2828 51.0707 56.3232 48.4849 58.9899C44.6869 62.3838 42.1818 64 40.3232 64C38.7879 64 37.0101 63.1919 32.0808 58.8283C29.6566 56.2424 29.7374 52.2828 32.3232 49.7778C34.3434 47.8384 37.7374 47.2727 40.3232 48.7273C42.9091 47.3535 46.2222 47.8384 48.404 49.8586ZM38.9495 52.6869C37.899 51.6364 36.1212 51.6364 35.0707 52.6869C34.101 53.6566 34.0202 55.1111 34.8283 55.9192C37.4141 58.2626 39.9192 59.9596 40.3232 59.9596C40.7273 59.9596 42.8283 58.5859 45.6566 56.0808C46.5455 55.1111 46.5455 53.6566 45.5758 52.6869C44.6061 51.7172 42.8283 51.6364 41.697 52.6869L40.3232 53.9798L38.9495 52.6869ZM40 7.91919C37.3333 12.8485 35.9596 16.1616 35.9596 17.8586C35.9596 20.3636 37.5758 21.899 40 21.899C42.3434 21.899 44.0404 20.4444 44.0404 17.8586C44.0404 16.3232 42.6667 13.0101 40 7.91919Z" fill="#E85F5C"/>
</g>
</svg>
