<svg width="75" height="75" viewBox="0 0 75 75" fill="none" xmlns="http://www.w3.org/2000/svg">
<g clip-path="url(#clip0_201_244)">
<path d="M58.1061 0C63.1818 0 67.5 4.09091 67.5 9.39394V48.7879H75V65.6818C75 70.6818 70.8333 75 65.6061 75H9.39394C4.31818 75 0 70.9091 0 65.6061V48.7879H7.5V9.39394C7.5 4.31818 11.5909 0 16.8939 0H58.1061ZM71.2879 52.5H3.71212V65.6061C3.71212 68.4848 5.98485 71.2121 9.31818 71.2121H65.6061C68.6364 71.2121 71.2121 68.7879 71.2121 65.6061V52.5H71.2879ZM16.8939 3.71212C13.8636 3.71212 11.2879 6.13636 11.2879 9.31818V48.7121C16.4394 48.7121 19.6212 48.7121 20.7576 48.7121C19.8485 38.7121 26.6667 31.5909 34.6212 30.2273L21.9697 21.2121L26.9697 11.2121H48.0303L53.0303 21.2121L40.3788 30.2273C48.3333 31.5909 55.303 39.0909 54.2424 48.7879C54.7727 48.7879 57.9545 48.7879 63.7121 48.7879V9.39394C63.7121 6.51515 61.4394 3.78788 58.1061 3.78788L16.8939 3.71212ZM37.5 33.7879C30.2273 33.7879 23.3333 40 24.5455 48.7879C25.0758 48.7879 33.7121 48.7879 50.5303 48.7879C51.5909 40 44.7727 33.7879 37.5 33.7879ZM45.6818 15H29.3182L26.8182 20L37.5758 27.6515L48.3333 20L45.6818 15Z" fill="#E85F5C"/>
</g>
<defs>
<clipPath id="clip0_201_244">
<rect width="75" height="75" fill="white"/>
</clipPath>
</defs>
</svg>
