<svg width="75" height="75" viewBox="0 0 75 75" fill="none" xmlns="http://www.w3.org/2000/svg">
<g id="better.together.married.icon 1" clip-path="url(#clip0_201_250)">
<path id="Vector" d="M60.303 0L65.7576 8.18182L57.2727 16.5152C67.4242 19.0909 75 28.6364 75 39.4697C75 52.5758 63.8636 65.0758 47.5 62.8788C42.9545 70.1515 34.9242 75 25.6818 75C11.5152 75 0 63.4848 0 49.3182C0 34.4697 13.7121 19.697 32.803 24.697C35.9091 20.7576 40.303 17.8788 45.303 16.5152L36.9697 8.18182L42.3485 0H60.303ZM3.93939 49.3182C3.93939 61.3636 13.6364 71.0606 25.6818 71.0606C33.0303 71.0606 39.5455 67.4242 43.4848 61.8182C33.3333 58.3333 22.2727 44.9242 30.5303 28.1818C14.6212 25.1515 3.93939 37.3485 3.93939 49.3182ZM36.7424 26.2121C45.3788 30.303 55.6061 42.2727 49.3939 59.0909C62.1212 60.1515 71.0606 50.1515 71.0606 39.4697C71.0606 28.7879 62.3485 19.7727 51.2879 19.697C45.3788 19.7727 40.2273 22.3485 36.7424 26.2121ZM34.3182 29.3939C26.4394 43.1061 36.7424 56.2121 45.4545 58.3333C51.6667 44.4697 42.0455 32.197 34.3182 29.3939ZM58.1818 3.93939H44.4697L41.9697 7.65152L50.1515 15.8333H52.4242L60.6061 7.65152L58.1818 3.93939Z" fill="#E85F5C"/>
</g>
<defs>
<clipPath id="clip0_201_250">
<rect width="75" height="75" fill="white"/>
</clipPath>
</defs>
</svg>
