<svg width="75" height="75" viewBox="0 0 75 75" fill="none" xmlns="http://www.w3.org/2000/svg">
<g id="better.together.single.daiting.icon 1">
<path id="Vector" d="M37.5 1.59082C57.8788 1.59082 74.6212 13.712 74.6212 28.9393C74.6212 33.9393 72.803 38.6363 69.6212 42.6514C72.803 45.3029 74.6212 48.712 74.6212 52.3484C74.6212 56.1363 72.5 59.9999 68.7879 62.7272V73.2575L58.2576 67.1969C41.6667 70.2272 30.303 62.8029 28.1818 55.4545C27.6515 55.3787 26.8182 55.1514 25.6061 54.9242L12.1212 63.8636V48.9393C5.30303 44.1666 0.378784 37.4999 0.378784 29.0151C0.378784 13.712 17.1212 1.59082 37.5 1.59082ZM32.6515 56.1363C38.4091 65.0757 52.9545 64.9242 58.8636 63.1817L64.8485 66.5908V60.7575C68.7879 58.4848 70.6818 55.2272 70.6818 52.4242C70.6818 49.9999 69.3939 47.6514 66.9697 45.606C58.2576 53.6363 46.8182 57.1211 32.6515 56.1363ZM37.5 5.53021C19.0151 5.53021 4.31818 16.212 4.31818 29.0151C4.31818 35.4545 8.18182 42.0454 16.0606 46.8939V56.6666L24.9242 50.7575C44.8485 56.6666 70.2273 47.2726 70.7576 29.0908C70.6818 16.212 55.9848 5.53021 37.5 5.53021ZM37.5 18.9393C40.9091 16.5908 46.2121 16.3635 49.9242 20.0757C53.6364 23.7878 53.7121 29.6969 50.303 33.4848C45 39.5454 40.9091 42.5757 37.5 42.5757C34.0909 42.5757 30 39.5454 24.697 33.4848C21.2121 29.6211 21.3636 23.712 25 19.9999C28.2576 16.8939 33.4091 16.212 37.5 18.9393ZM36.1364 22.8787C33.8636 20.606 30.1515 20.606 27.8788 22.8787C25.6818 25.0757 25.6061 28.6363 27.7273 30.9848C32.2727 36.212 35.7576 38.7878 37.5758 38.7878C39.3939 38.7878 42.8788 36.212 47.4242 30.9848C49.5454 28.712 49.4697 25.1514 47.197 22.8787C45 20.6817 41.5151 20.4545 38.9394 22.8787L37.5 24.2423L36.1364 22.8787Z" fill="#E85F5C"/>
</g>
</svg>
